<?xml version="1.0" encoding="utf-8"?>
<!-- Generator: Adobe Illustrator 20.1.0, SVG Export Plug-In . SVG Version: 6.00 Build 0)  -->
<svg version="1.1" id="Layer_1" xmlns="http://www.w3.org/2000/svg" xmlns:xlink="http://www.w3.org/1999/xlink" x="0px" y="0px"
	 viewBox="0 0 955.4 1122.9" style="enable-background:new 0 0 955.4 1122.9;" xml:space="preserve">
<style type="text/css">
	.st0{fill:none;}
	.st1{fill:#298BB3;}
	.st2{opacity:0.2;enable-background:new    ;}
	.st3{fill:#25AAE1;}
	.st4{fill:#1C78A5;}
	.st5{fill:#074F7B;}
	.st6{fill:url(#_Path_11_1_);}
</style>
<title>Logo</title>
<g id="_Group_">
	<path id="_Path_" class="st0" d="M824.1,996.8"/>
	<polygon id="_Path_2" class="st1" points="590.9,395.2 589.3,878.4 732.5,948.8 824.1,903.1 824.1,275.4 	"/>
	<polygon id="_Path_3" class="st2" points="695.1,144.4 695.1,726.5 943.8,831.8 941.2,20.1 	"/>
	<polygon id="_Path_4" class="st3" points="709.3,130.2 709.3,712.3 955.4,837.7 955.4,5.9 	"/>
	<polygon id="_Path_5" class="st4" points="709.3,712.3 131,996.8 383.1,1122.9 955.4,837.7 	"/>
	<polygon id="_Path_6" class="st5" points="824.1,903.1 824.1,996.8 730.1,950 	"/>
	<polygon id="_Path_7" class="st1" points="371.8,390.2 371.9,878.1 232.4,946.9 132.6,897.2 132.6,269.5 	"/>
	<polygon id="_Path_8" class="st2" points="262.7,138.4 262.7,720.6 14.2,824.6 14.2,14.2 	"/>
	<polygon id="_Path_9" class="st3" points="248.5,124.2 248.5,706.4 0,831.8 0,0 	"/>
	<polygon id="_Path_10" class="st2" points="262.7,698.7 824.1,978.9 824.1,996.8 589.3,1111.4 262.7,831.8 	"/>
	
		<linearGradient id="_Path_11_1_" gradientUnits="userSpaceOnUse" x1="-65.67" y1="-10.35" x2="758.43" y2="-10.35" gradientTransform="matrix(1 0 0 1 0 922)">
		<stop  offset="0" style="stop-color:#079BC5"/>
		<stop  offset="1" style="stop-color:#105E80"/>
	</linearGradient>
	<polygon id="_Path_11" class="st6" points="248.5,706.4 824.1,996.8 577.9,1116.9 0,831.8 	"/>
	<polygon id="_Path_12" class="st5" points="131,896.4 131,996.8 233.3,946.9 	"/>
</g>
</svg>
