<svg id="SvgjsSvg1038" xmlns="http://www.w3.org/2000/svg" version="1.1" xmlns:xlink="http://www.w3.org/1999/xlink" xmlns:svgjs="http://svgjs.com/svgjs" width="26" height="26" viewBox="0 0 26 26"><title>07</title><desc>Created with Avocode.</desc><defs id="SvgjsDefs1039"></defs><path id="SvgjsPath1040" d="M724.999 538.2C721.58 538.2 718.366 539.532 715.9490000000001 541.95C713.5310000000001 544.3670000000001 712.1990000000001 547.581 712.1990000000001 551C712.1990000000001 554.419 713.5310000000001 557.633 715.9490000000001 560.051C718.3660000000001 562.469 721.58 563.8000000000001 724.999 563.8000000000001C728.418 563.8000000000001 731.6320000000001 562.469 734.0500000000001 560.051C736.4680000000001 557.633 737.8000000000001 554.4190000000001 737.8000000000001 551C737.8000000000001 547.581 736.4680000000001 544.367 734.0500000000001 541.95C731.6320000000001 539.532 728.4180000000001 538.2 724.999 538.2ZM732.919 558.919C730.803 561.035 727.991 562.1999999999999 724.999 562.1999999999999C722.008 562.1999999999999 719.195 561.035 717.08 558.919C714.964 556.804 713.7990000000001 553.992 713.7990000000001 551C713.7990000000001 548.009 714.964 545.196 717.08 543.081C719.195 540.965 722.008 539.8000000000001 724.999 539.8000000000001C727.991 539.8000000000001 730.803 540.965 732.919 543.081C735.034 545.196 736.1999999999999 548.009 736.1999999999999 551C736.1999999999999 553.992 735.0339999999999 556.804 732.919 558.919ZM732.199 550.2H725.799V543.8000000000001C725.799 543.3580000000001 725.441 543.0000000000001 724.999 543.0000000000001C724.558 543.0000000000001 724.1990000000001 543.3580000000001 724.1990000000001 543.8000000000001V550.2H717.7990000000001C717.3580000000001 550.2 716.9990000000001 550.558 716.9990000000001 551C716.9990000000001 551.442 717.3580000000002 551.8 717.7990000000001 551.8H724.1990000000001V558.1999999999999C724.1990000000001 558.6419999999999 724.5580000000001 558.9999999999999 724.999 558.9999999999999C725.441 558.9999999999999 725.799 558.6419999999999 725.799 558.1999999999999V551.8H732.199C732.641 551.8 732.9989999999999 551.442 732.9989999999999 551C732.9989999999999 550.558 732.641 550.2 732.199 550.2Z " fill="#ffffff" fill-opacity="1" transform="matrix(1,0,0,1,-712,-538)"></path></svg>